<svg xmlns="http://www.w3.org/2000/svg" width="256" height="256" viewBox="0 0 100 100"><rect width="100" height="100" rx="0" fill="#0b0a10"></rect><path fill="#fff" d="M32.87 27.09L42.04 27.09L42.04 58.94Q42.04 65.57 38.20 69.24Q34.37 72.91 27.93 72.91L27.93 72.91Q21.43 72.91 17.44 69.14Q13.44 65.37 13.44 58.61L13.44 58.61L22.54 58.61Q22.60 61.54 23.94 63.16Q25.27 64.79 27.80 64.79L27.80 64.79Q30.27 64.79 31.57 63.23Q32.87 61.67 32.87 58.94L32.87 58.94L32.87 27.09ZM86.56 72.46L76.03 72.46L66.02 54.78L61.73 54.78L61.73 72.46L52.63 72.46L52.63 27.09L69.66 27.09Q74.93 27.09 78.63 28.94Q82.34 30.79 84.19 33.94Q86.04 37.10 86.04 41.00L86.04 41.00Q86.04 45.48 83.44 49.09Q80.84 52.70 75.71 54.06L75.71 54.06L86.56 72.46ZM61.73 34.63L61.73 47.95L69.34 47.95Q73.04 47.95 74.86 46.16Q76.68 44.38 76.68 41.19L76.68 41.19Q76.68 38.07 74.86 36.35Q73.04 34.63 69.34 34.63L69.34 34.63L61.73 34.63Z"></path></svg>